<?xml version="1.0" encoding="utf-8"?>
<!-- Generator: Adobe Illustrator 22.0.0, SVG Export Plug-In . SVG Version: 6.00 Build 0)  -->
<svg version="1.1" id="Capa_1" xmlns="http://www.w3.org/2000/svg" xmlns:xlink="http://www.w3.org/1999/xlink" x="0px" y="0px"
	 width="20px" height="20px" viewBox="0 0 20 20" style="enable-background:new 0 0 20 20;" xml:space="preserve">
<style type="text/css">
	.st0{fill:#FFFFFF;}
</style>
<g>
	<g>
		<path class="st0" d="M15.205,13.231c-0.653-0.645-1.469-0.645-2.118,0c-0.495,0.491-0.991,0.982-1.477,1.482
			c-0.133,0.137-0.246,0.166-0.408,0.075c-0.32-0.175-0.662-0.316-0.97-0.508c-1.436-0.903-2.639-2.064-3.704-3.371
			C5.999,10.259,5.529,9.564,5.2,8.782C5.134,8.623,5.146,8.519,5.275,8.39C5.77,7.912,6.253,7.421,6.74,6.93
			c0.678-0.683,0.678-1.482-0.004-2.168C6.349,4.37,5.962,3.987,5.575,3.596c-0.4-0.4-0.795-0.803-1.199-1.199
			C3.723,1.76,2.907,1.76,2.258,2.401C1.758,2.893,1.28,3.396,0.772,3.879c-0.47,0.445-0.708,0.991-0.757,1.627
			c-0.079,1.036,0.175,2.014,0.533,2.967c0.732,1.973,1.848,3.725,3.201,5.331c1.827,2.173,4.008,3.891,6.559,5.132
			c1.149,0.558,2.339,0.986,3.633,1.057c0.891,0.05,1.665-0.175,2.285-0.87c0.425-0.474,0.903-0.907,1.353-1.361
			c0.666-0.674,0.67-1.49,0.008-2.156C16.795,14.812,16,14.021,15.205,13.231z"/>
		<path class="st0" d="M14.411,9.914l1.536-0.262c-0.241-1.411-0.907-2.689-1.919-3.704c-1.07-1.07-2.422-1.744-3.912-1.952
			L9.899,5.54c1.153,0.162,2.202,0.683,3.03,1.511C13.711,7.833,14.223,8.823,14.411,9.914z"/>
		<path class="st0" d="M16.812,3.238C15.039,1.465,12.796,0.345,10.319,0l-0.216,1.544c2.139,0.3,4.079,1.269,5.61,2.797
			c1.453,1.453,2.406,3.288,2.751,5.306L20,9.385C19.596,7.046,18.493,4.924,16.812,3.238z"/>
	</g>
</g>
</svg>
