<?xml version="1.0" encoding="utf-8"?>
<!-- Generator: Adobe Illustrator 22.0.0, SVG Export Plug-In . SVG Version: 6.00 Build 0)  -->
<svg version="1.1" id="Шар_1" xmlns="http://www.w3.org/2000/svg" xmlns:xlink="http://www.w3.org/1999/xlink" x="0px" y="0px"
	 width="7px" height="14.013px" viewBox="0 0 7 14.013" style="enable-background:new 0 0 7 14.013;" xml:space="preserve">
<style type="text/css">
	.st0{fill:#FFFFFF;}
</style>
<g>
	<path class="st0" d="M4.373,14.013c-0.847,0-1.695,0-2.542,0c0-0.098-0.007-0.196-0.007-0.293c0-2.06,0-4.113,0-6.172
		c0-0.085,0-0.665,0-0.75c-0.626,0-1.225,0-1.825,0c0-0.795,0-1.584,0-2.379c0.6,0,1.199,0,1.825,0c0-0.104-0.013-1.095,0-1.773
		C1.851,1.532,2.359,0.671,3.37,0.196C3.591,0.091,3.813,0.026,4.08,0C5.051,0,6.029,0,7,0c0,0.808,0,1.59,0,2.399
		c-0.085,0-1.277-0.007-1.812-0.007c-0.574,0-0.802,0.372-0.795,0.795c0.007,0.463,0,1.101,0,1.232c0.886,0,1.747,0,2.607,0
		c0,0.072-0.156,1.558-0.209,2.17C6.778,6.733,6.739,6.778,6.589,6.778c-0.534-0.007-2.001,0-2.223,0
		C4.373,9.04,4.373,11.777,4.373,14.013z"/>
</g>
</svg>
