<?xml version="1.0" encoding="utf-8"?>
<!-- Generator: Adobe Illustrator 22.0.0, SVG Export Plug-In . SVG Version: 6.00 Build 0)  -->
<svg version="1.1" id="Capa_1" xmlns="http://www.w3.org/2000/svg" xmlns:xlink="http://www.w3.org/1999/xlink" x="0px" y="0px"
	 width="18px" height="13.814px" viewBox="0 0 18 13.814" style="enable-background:new 0 0 18 13.814;" xml:space="preserve">
<style type="text/css">
	.st0{fill:#FFFFFF;}
</style>
<g>
	<g>
		<g>
			<path class="st0" d="M13.814,6.139H7.367v2.149H11.3c-0.587,1.868-2.332,3.223-4.394,3.223c-2.543,0-4.605-2.062-4.605-4.605
				c0-2.543,2.062-4.605,4.605-4.605c1.281,0,2.439,0.523,3.274,1.367l1.56-1.695C10.495,0.753,8.789,0,6.907,0
				C3.092,0,0,3.092,0,6.907s3.092,6.907,6.907,6.907c3.341,0,6.267-2.373,6.907-5.526L13.814,6.139L13.814,6.139L13.814,6.139z"/>
			<polygon class="st0" points="18,6.136 16.681,6.136 16.681,4.817 15.551,4.817 15.551,6.136 14.233,6.136 14.233,7.266 
				15.551,7.266 15.551,8.585 16.681,8.585 16.681,7.266 18,7.266 			"/>
		</g>
	</g>
</g>
</svg>
