<?xml version="1.0" encoding="utf-8"?>
<!-- Generator: Adobe Illustrator 22.0.0, SVG Export Plug-In . SVG Version: 6.00 Build 0)  -->
<svg version="1.1" id="Capa_1" xmlns="http://www.w3.org/2000/svg" xmlns:xlink="http://www.w3.org/1999/xlink" x="0px" y="0px"
	 width="100px" height="95px" viewBox="0 0 100 95" style="enable-background:new 0 0 100 95;" xml:space="preserve">
<style type="text/css">
	.st0{fill:#3EDEDC;}
	.st1{fill:#4495F8;}
</style>
<g>
	<g>
		<path class="st0" d="M7.24,57.977c-0.363-0.363-0.867-0.572-1.381-0.572s-1.018,0.209-1.381,0.572s-0.572,0.865-0.572,1.381
			c0,0.514,0.209,1.018,0.572,1.381s0.867,0.572,1.381,0.572s1.018-0.209,1.381-0.572c0.363-0.365,0.572-0.867,0.572-1.381
			C7.813,58.844,7.604,58.34,7.24,57.977z"/>
	</g>
</g>
<g>
	<g>
		<path class="st0" d="M11.147,12.525L7.241,8.619c-0.763-0.762-1.999-0.762-2.762,0l-3.907,3.906c-0.763,0.763-0.763,1.999,0,2.762
			c0.763,0.762,1.999,0.762,2.762,0l0.572-0.572v36.767c0,1.079,0.875,1.953,1.953,1.953s1.953-0.875,1.953-1.953V14.716
			l0.572,0.572c0.381,0.381,0.881,0.572,1.381,0.572c0.5,0,1-0.191,1.381-0.572C11.909,14.525,11.909,13.288,11.147,12.525z"/>
	</g>
</g>
<g>
	<g>
		<path class="st0" d="M99.428,79.713l-3.906-3.906c-0.763-0.762-1.999-0.762-2.762,0c-0.763,0.763-0.763,1.999,0,2.762l0.572,0.572
			h-7.009V51.732c0-1.079-0.875-1.953-1.953-1.953s-1.953,0.875-1.953,1.953v27.409H61.251v-12.5c0-1.079-0.875-1.953-1.953-1.953
			s-1.953,0.875-1.953,1.953v12.5H41.108V47.798c0-1.079-0.875-1.953-1.953-1.953s-1.953,0.875-1.953,1.953v31.343H21.521V66.934
			c0-1.079-0.875-1.953-1.953-1.953c-1.079,0-1.953,0.875-1.953,1.953v12.207H7.813V67.899c0-1.079-0.875-1.953-1.953-1.953
			s-1.953,0.875-1.953,1.953v13.194c-0.001,1.079,0.874,1.954,1.953,1.954h87.472l-0.572,0.572c-0.763,0.763-0.763,1.999,0,2.762
			c0.381,0.381,0.881,0.572,1.381,0.572s1-0.191,1.381-0.572l3.906-3.906C100.191,81.712,100.191,80.475,99.428,79.713z"/>
	</g>
</g>
<g>
	<g>
		<path class="st1" d="M84.369,23.179c-3.889,0-7.052,3.163-7.052,7.052c0,1.115,0.261,2.171,0.724,3.109L62.747,48.634
			c-1.021-0.575-2.197-0.905-3.45-0.905c-1.225,0-2.377,0.314-3.382,0.865L45.572,38.25c0.407-0.89,0.635-1.879,0.635-2.92
			c0-3.889-3.163-7.052-7.052-7.052s-7.052,3.164-7.052,7.052c0,1.2,0.302,2.33,0.833,3.32l-9.966,9.966
			c-1.01-0.558-2.169-0.877-3.402-0.877c-3.889,0-7.052,3.163-7.052,7.052s3.164,7.052,7.053,7.052s7.052-3.163,7.052-7.052
			c0-1.239-0.322-2.403-0.885-3.416l9.925-9.925c1.031,0.591,2.224,0.931,3.495,0.931c1.427,0,2.755-0.427,3.866-1.158
			l10.121,10.121c-0.57,1.017-0.897,2.189-0.897,3.436c0,3.889,3.163,7.052,7.052,7.052s7.052-3.164,7.052-7.052
			c0-1.219-0.311-2.367-0.858-3.368l15.18-15.18c1.076,0.665,2.342,1.05,3.697,1.05c3.889,0,7.052-3.164,7.052-7.052
			S88.257,23.179,84.369,23.179z M19.568,57.938c-1.735,0-3.146-1.411-3.146-3.146s1.411-3.146,3.146-3.146
			c0.85,0,1.621,0.34,2.187,0.89c0.01,0.01,0.018,0.021,0.028,0.031c0.012,0.012,0.024,0.021,0.036,0.033
			c0.553,0.567,0.895,1.34,0.895,2.193C22.714,56.527,21.302,57.938,19.568,57.938z M39.155,38.476
			c-1.735,0-3.146-1.411-3.146-3.146s1.411-3.146,3.146-3.146s3.146,1.412,3.146,3.146C42.301,37.065,40.89,38.476,39.155,38.476z
			 M59.298,57.927c-1.735,0-3.146-1.412-3.146-3.146c0-1.735,1.411-3.146,3.146-3.146s3.146,1.411,3.146,3.146
			S61.032,57.927,59.298,57.927z M84.369,33.377c-1.735,0-3.146-1.412-3.146-3.146c0-1.735,1.411-3.146,3.146-3.146
			s3.146,1.411,3.146,3.146C87.515,31.965,86.104,33.377,84.369,33.377z"/>
	</g>
</g>
<g>
	<g>
		<path class="st0" d="M85.75,42.213c-0.363-0.363-0.867-0.572-1.381-0.572s-1.018,0.209-1.381,0.572s-0.572,0.867-0.572,1.381
			s0.209,1.018,0.572,1.381s0.867,0.572,1.381,0.572s1.018-0.209,1.381-0.572s0.572-0.867,0.572-1.381S86.113,42.576,85.75,42.213z"
			/>
	</g>
</g>
</svg>
