<?xml version="1.0" encoding="utf-8"?>
<!-- Generator: Adobe Illustrator 22.0.0, SVG Export Plug-In . SVG Version: 6.00 Build 0)  -->
<svg version="1.1" id="Capa_1" xmlns="http://www.w3.org/2000/svg" xmlns:xlink="http://www.w3.org/1999/xlink" x="0px" y="0px"
	 width="17px" height="13.809px" viewBox="0 0 17 13.809" style="enable-background:new 0 0 17 13.809;" xml:space="preserve">
<style type="text/css">
	.st0{fill:#FFFFFF;}
</style>
<g>
	<g>
		<path class="st0" d="M17,1.634c-0.626,0.277-1.297,0.465-2.002,0.549c0.72-0.431,1.272-1.115,1.533-1.928
			c-0.676,0.399-1.421,0.689-2.216,0.847C13.678,0.423,12.773,0,11.769,0C9.843,0,8.282,1.562,8.282,3.486
			c0,0.273,0.031,0.54,0.09,0.795C5.474,4.136,2.904,2.747,1.184,0.637C0.884,1.152,0.713,1.751,0.713,2.39
			c0,1.21,0.616,2.278,1.551,2.902c-0.572-0.019-1.109-0.176-1.58-0.438v0.044c0,1.689,1.203,3.099,2.797,3.42
			C3.189,8.396,2.881,8.44,2.562,8.44c-0.225,0-0.443-0.022-0.657-0.065c0.444,1.386,1.732,2.394,3.257,2.422
			c-1.193,0.935-2.697,1.49-4.331,1.49c-0.282,0-0.559-0.017-0.832-0.048c1.544,0.991,3.376,1.569,5.346,1.569
			c6.415,0,9.922-5.314,9.922-9.922l-0.012-0.451C15.941,2.947,16.534,2.333,17,1.634z"/>
	</g>
</g>
</svg>
