<?xml version="1.0" encoding="utf-8"?>
<!-- Generator: Adobe Illustrator 22.0.0, SVG Export Plug-In . SVG Version: 6.00 Build 0)  -->
<svg version="1.1" id="Шар_1" xmlns="http://www.w3.org/2000/svg" xmlns:xlink="http://www.w3.org/1999/xlink" x="0px" y="0px"
	 width="397.996px" height="397.997px" viewBox="0 0 397.996 397.997" style="enable-background:new 0 0 397.996 397.997;"
	 xml:space="preserve">
<style type="text/css">
	.st0{fill:#FFFFFF;}
	.st1{fill:#4495F8;}
</style>
<g>
	<g>
		
			<rect x="278.327" y="84.302" transform="matrix(0.7071 -0.7071 0.7071 0.7071 13.8693 238.6754)" class="st0" width="33.429" height="36.588"/>
	</g>
</g>
<g>
	<g>
		<g>
			<g>
				
					<rect x="157.64" y="157.458" transform="matrix(0.7071 -0.7071 0.7071 0.7071 -59.2874 208.3729)" class="st0" width="128.49" height="36.588"/>
			</g>
		</g>
	</g>
</g>
<g>
	<polygon class="st0" points="198.998,397.997 0,198.998 198.998,0 256.512,57.514 251.562,62.464 198.998,9.899 9.899,198.998 
		198.998,388.097 388.097,198.998 335.884,146.786 340.834,141.836 397.996,198.998 	"/>
</g>
<g>
	<polygon class="st1" points="198.998,333.406 64.591,198.998 200.289,63.3 225.745,88.756 115.503,198.998 198.998,282.494 
		309.24,172.252 334.696,197.708 	"/>
</g>
<g>
</g>
<g>
</g>
<g>
</g>
</svg>
