<?xml version="1.0" encoding="utf-8"?>
<!-- Generator: Adobe Illustrator 24.1.1, SVG Export Plug-In . SVG Version: 6.00 Build 0)  -->
<svg version="1.1" id="Шар_1" xmlns="http://www.w3.org/2000/svg" xmlns:xlink="http://www.w3.org/1999/xlink" x="0px" y="0px"
	 width="11.789px" height="15px" viewBox="0 0 11.789 15" style="enable-background:new 0 0 11.789 15;" xml:space="preserve">
<style type="text/css">
	.st0{fill:#3EDEDC;}
</style>
<path id="Path_44" class="st0" d="M10.261,1.537C9.169,0.523,7.727-0.028,6.237,0C4.501-0.066,2.814,0.585,1.572,1.8
	C0.587,2.776,0.023,4.098-0.001,5.484C-0.144,6.902,0.598,8.263,1.868,8.91c0.074,0.031,0.154,0.047,0.235,0.048
	c0.248-0.001,0.461-0.177,0.51-0.42c0.039-0.149,0.131-0.515,0.171-0.674c0.088-0.24,0.023-0.51-0.165-0.684
	c-0.346-0.417-0.524-0.948-0.5-1.49C2.104,3.62,3.77,1.929,5.84,1.914c0.055,0,0.11,0,0.166,0.002c2,0,3.248,1.139,3.248,2.972
	c0.027,1.048-0.214,2.086-0.7,3.016c-0.313,0.68-0.969,1.139-1.716,1.2c-0.347,0.007-0.679-0.146-0.9-0.414
	c-0.197-0.256-0.264-0.588-0.182-0.9c0.089-0.378,0.211-0.772,0.329-1.154c0.224-0.605,0.364-1.237,0.418-1.879
	c0.075-0.75-0.472-1.418-1.221-1.493C5.231,3.259,5.181,3.256,5.13,3.257c-1.043,0-1.861,1.06-1.861,2.413
	C3.267,6.132,3.353,6.591,3.525,7.02c-0.131,0.557-0.913,3.868-1.061,4.492c-0.086,0.364-0.6,3.243,0.252,3.473
	c0.96,0.258,1.818-2.546,1.905-2.863c0.071-0.258,0.318-1.232,0.47-1.831c0.531,0.479,1.22,0.746,1.935,0.748
	c1.364-0.001,2.647-0.645,3.461-1.739c0.887-1.238,1.344-2.733,1.3-4.256C11.773,3.717,11.223,2.452,10.261,1.537z"/>
</svg>
