<svg xmlns="http://www.w3.org/2000/svg" width="11.789" height="15" viewBox="0 0 11.789 15">
  <path id="Path_44" data-name="Path 44" d="M43.442,1.537A5.752,5.752,0,0,0,39.418,0a6.325,6.325,0,0,0-4.665,1.8,5.314,5.314,0,0,0-1.573,3.684A3.456,3.456,0,0,0,35.049,8.91a.619.619,0,0,0,.235.048.523.523,0,0,0,.51-.42c.039-.149.131-.515.171-.674A.633.633,0,0,0,35.8,7.18a2.18,2.18,0,0,1-.5-1.49,3.749,3.749,0,0,1,3.887-3.774c2,0,3.248,1.139,3.248,2.972a6.175,6.175,0,0,1-.7,3.016,2.075,2.075,0,0,1-1.716,1.2,1.138,1.138,0,0,1-.9-.414,1.041,1.041,0,0,1-.182-.9c.089-.378.211-.772.329-1.154a7.139,7.139,0,0,0,.418-1.879,1.364,1.364,0,0,0-1.373-1.5c-1.043,0-1.861,1.06-1.861,2.413a3.588,3.588,0,0,0,.256,1.35c-.131.557-.913,3.868-1.061,4.492-.086.364-.6,3.243.252,3.473.96.258,1.818-2.546,1.905-2.863.071-.258.318-1.232.47-1.831a2.9,2.9,0,0,0,1.935.748A4.317,4.317,0,0,0,43.668,9.3a6.961,6.961,0,0,0,1.3-4.256A4.908,4.908,0,0,0,43.442,1.537Z" transform="translate(-33.181)" fill="#343434"/>
</svg>
