<?xml version="1.0" encoding="utf-8"?>
<!-- Generator: Adobe Illustrator 22.0.0, SVG Export Plug-In . SVG Version: 6.00 Build 0)  -->
<svg version="1.1" id="Шар_1" xmlns="http://www.w3.org/2000/svg" xmlns:xlink="http://www.w3.org/1999/xlink" x="0px" y="0px"
	 width="50px" height="61.687px" viewBox="0 0 50 61.687" style="enable-background:new 0 0 50 61.687;" xml:space="preserve">
<style type="text/css">
	.st0{fill:#3EDEDC;}
</style>
<path class="st0" d="M49.299,55.363l-8.565-12.541c5.063-4.491,8.263-11.04,8.263-18.324C48.996,10.989,38.007,0,24.498,0
	S0,10.989,0,24.498s10.99,24.498,24.498,24.498c3.389,0,6.619-0.693,9.558-1.942l8.532,12.837c1.246,1.861,3.766,2.357,5.624,1.107
	l0,0C50.073,59.745,50.56,57.218,49.299,55.363z M7,24.498C7,14.85,14.85,7,24.498,7c9.648,0,17.498,7.849,17.498,17.497
	c0,9.648-7.85,17.498-17.498,17.498C14.85,41.996,7,34.146,7,24.498z"/>
</svg>
