<?xml version="1.0" encoding="utf-8"?>
<!-- Generator: Adobe Illustrator 22.0.0, SVG Export Plug-In . SVG Version: 6.00 Build 0)  -->
<svg version="1.1" id="Capa_1" xmlns="http://www.w3.org/2000/svg" xmlns:xlink="http://www.w3.org/1999/xlink" x="0px" y="0px"
	 width="35px" height="27.5px" viewBox="0 0 35 27.5" style="enable-background:new 0 0 35 27.5;" xml:space="preserve">
<style type="text/css">
	.st0{fill:#4495F8;}
</style>
<g>
	<g>
		<path class="st0" d="M31.875,27.5c0.787,0,1.468-0.26,2.048-0.773l-9.916-9.916c-0.238,0.17-0.469,0.336-0.686,0.494
			c-0.742,0.547-1.344,0.973-1.807,1.279c-0.462,0.306-1.078,0.619-1.846,0.938C18.899,19.84,18.183,20,17.519,20H17.5H17.48
			c-0.664,0-1.38-0.159-2.149-0.478c-0.768-0.319-1.384-0.631-1.846-0.938c-0.462-0.306-1.064-0.732-1.807-1.279
			c-0.207-0.152-0.436-0.318-0.684-0.496l-9.918,9.919C1.656,27.24,2.338,27.5,3.125,27.5H31.875z"/>
		<path class="st0" d="M1.973,10.567C1.231,10.072,0.573,9.505,0,8.867v15.087l8.74-8.74C6.991,13.994,4.739,12.446,1.973,10.567z"
			/>
		<path class="st0" d="M33.047,10.567c-2.66,1.801-4.921,3.351-6.783,4.651L35,23.955V8.867
			C34.44,9.492,33.789,10.059,33.047,10.567z"/>
		<path class="st0" d="M31.875,0H3.125C2.122,0,1.351,0.339,0.811,1.015C0.27,1.692,0,2.539,0,3.554c0,0.82,0.358,1.709,1.074,2.666
			C1.79,7.178,2.552,7.929,3.36,8.476c0.443,0.313,1.777,1.241,4.004,2.783c1.202,0.833,2.247,1.559,3.146,2.186
			c0.766,0.534,1.426,0.996,1.971,1.379c0.063,0.044,0.161,0.114,0.292,0.208c0.141,0.101,0.319,0.229,0.539,0.388
			c0.423,0.306,0.775,0.553,1.055,0.742c0.28,0.189,0.618,0.4,1.016,0.635c0.397,0.234,0.772,0.41,1.123,0.527
			c0.352,0.117,0.677,0.176,0.976,0.176H17.5h0.019c0.299,0,0.625-0.059,0.977-0.176c0.351-0.117,0.726-0.293,1.123-0.527
			c0.397-0.234,0.735-0.446,1.016-0.635c0.28-0.189,0.632-0.436,1.055-0.742c0.219-0.159,0.397-0.287,0.538-0.388
			c0.131-0.094,0.229-0.164,0.292-0.208c0.425-0.296,1.087-0.756,1.976-1.374c1.619-1.125,4.004-2.781,7.164-4.974
			c0.95-0.664,1.744-1.465,2.383-2.402C34.681,5.137,35,4.154,35,3.125c0-0.859-0.31-1.595-0.928-2.207
			C33.454,0.306,32.721,0,31.875,0z"/>
	</g>
</g>
</svg>
