<?xml version="1.0" encoding="utf-8"?>
<!-- Generator: Adobe Illustrator 22.0.0, SVG Export Plug-In . SVG Version: 6.00 Build 0)  -->
<svg version="1.1" id="Шар_1" xmlns="http://www.w3.org/2000/svg" xmlns:xlink="http://www.w3.org/1999/xlink" x="0px" y="0px"
	 width="38px" height="34.084px" viewBox="0 0 38 34.084" style="enable-background:new 0 0 38 34.084;" xml:space="preserve">
<style type="text/css">
	.st0{fill:#4495F8;}
</style>
<path class="st0" d="M18.841,0c-4.677,0-8.468,3.791-8.468,8.468c0,4.677,6.51,13.337,8.468,13.337s8.468-8.66,8.468-13.337
	C27.309,3.791,23.518,0,18.841,0z M18.841,12.067c-1.988,0-3.599-1.611-3.599-3.599s1.611-3.599,3.599-3.599S22.44,6.48,22.44,8.468
	S20.829,12.067,18.841,12.067z"/>
<g>
	<g>
		<polygon class="st0" points="21.189,34.084 26.973,29.035 7.833,24.759 7.833,34.084 		"/>
		<polygon class="st0" points="23.764,34.084 38,34.084 35.286,24.028 		"/>
		<polygon class="st0" points="6.139,24.38 2.819,23.639 0,34.084 6.139,34.084 		"/>
	</g>
</g>
<path class="st0" d="M33.343,16.83h-6.973c-0.307,0.498-0.587,0.924-0.81,1.252c-1.814,2.664-4.452,5.84-6.718,5.84
	s-4.904-3.176-6.718-5.84c-0.223-0.328-0.503-0.753-0.81-1.252H4.657l-1.396,5.172l25.294,5.651l6.239-5.445L33.343,16.83z"/>
</svg>
