<?xml version="1.0" encoding="utf-8"?>
<!-- Generator: Adobe Illustrator 22.0.0, SVG Export Plug-In . SVG Version: 6.00 Build 0)  -->
<svg version="1.1" id="Capa_1" xmlns="http://www.w3.org/2000/svg" xmlns:xlink="http://www.w3.org/1999/xlink" x="0px" y="0px"
	 width="35px" height="35.001px" viewBox="0 0 35 35.001" style="enable-background:new 0 0 35 35.001;" xml:space="preserve">
<style type="text/css">
	.st0{fill:#4495F8;}
</style>
<g>
	<g>
		<path class="st0" d="M26.61,23.154c-1.143-1.129-2.571-1.129-3.707,0c-0.867,0.859-1.733,1.719-2.586,2.593
			c-0.233,0.24-0.43,0.291-0.714,0.131c-0.561-0.306-1.158-0.554-1.697-0.889c-2.513-1.58-4.618-3.613-6.482-5.9
			c-0.925-1.136-1.748-2.353-2.323-3.722c-0.117-0.277-0.095-0.459,0.131-0.685c0.867-0.838,1.712-1.697,2.564-2.556
			c1.187-1.194,1.187-2.593-0.007-3.795c-0.677-0.685-1.355-1.355-2.032-2.039C9.057,5.594,8.365,4.887,7.658,4.195
			C6.515,3.081,5.087,3.081,3.951,4.202c-0.874,0.859-1.712,1.741-2.6,2.586C0.528,7.567,0.113,8.522,0.025,9.636
			c-0.138,1.814,0.306,3.525,0.932,5.193c1.282,3.452,3.234,6.519,5.601,9.33c3.197,3.802,7.014,6.81,11.479,8.98
			c2.01,0.976,4.093,1.726,6.358,1.85c1.559,0.087,2.913-0.306,3.999-1.522c0.743-0.83,1.58-1.588,2.367-2.382
			c1.165-1.18,1.173-2.607,0.015-3.773C29.392,25.921,28.001,24.538,26.61,23.154z"/>
		<path class="st0" d="M25.218,17.349l2.688-0.459c-0.422-2.469-1.588-4.705-3.358-6.482c-1.872-1.872-4.239-3.052-6.846-3.416
			l-0.379,2.702c2.017,0.284,3.853,1.194,5.302,2.644C23.995,13.707,24.891,15.441,25.218,17.349z"/>
		<path class="st0" d="M29.421,5.666C26.318,2.564,22.393,0.605,18.059,0L17.68,2.702c3.744,0.524,7.138,2.221,9.818,4.894
			c2.542,2.542,4.21,5.754,4.814,9.286L35,16.424C34.294,12.331,32.363,8.616,29.421,5.666z"/>
	</g>
</g>
</svg>
