<?xml version="1.0" encoding="utf-8"?>
<!-- Generator: Adobe Illustrator 22.0.0, SVG Export Plug-In . SVG Version: 6.00 Build 0)  -->
<svg version="1.1" id="Capa_1" xmlns="http://www.w3.org/2000/svg" xmlns:xlink="http://www.w3.org/1999/xlink" x="0px" y="0px"
	 width="95px" height="95px" viewBox="0 0 95 95" style="enable-background:new 0 0 95 95;" xml:space="preserve">
<style type="text/css">
	.st0{fill:#FFFFFF;}
</style>
<g>
	<g>
		<path class="st0" d="M53.079,71.794c-0.345-0.345-0.824-0.544-1.312-0.544s-0.967,0.199-1.312,0.544s-0.544,0.824-0.544,1.312
			s0.199,0.967,0.544,1.312c0.345,0.345,0.824,0.544,1.312,0.544s0.967-0.199,1.312-0.544s0.544-0.824,0.544-1.312
			S53.424,72.139,53.079,71.794z"/>
	</g>
</g>
<g>
	<g>
		<path class="st0" d="M61.416,20.285h-0.025c-1.025,0-1.855,0.831-1.855,1.855c0,1.025,0.831,1.855,1.855,1.855h0.025
			c1.025,0,1.855-0.831,1.855-1.855S62.441,20.285,61.416,20.285z"/>
	</g>
</g>
<g>
	<g>
		<path class="st0" d="M83.52,20.285H68.7c-1.025,0-1.855,0.831-1.855,1.855c0,1.025,0.831,1.855,1.855,1.855h14.82
			c1.025,0,1.855-0.831,1.855-1.855S84.544,20.285,83.52,20.285z"/>
	</g>
</g>
<g>
	<g>
		<path class="st0" d="M93.145,11.875H70.701V4.302C70.701,1.93,68.771,0,66.399,0H40.105c-2.372,0-4.302,1.93-4.302,4.302v7.573
			H13.359c-1.025,0-1.855,0.831-1.855,1.855v17.478c0,2.589,1.067,4.932,2.783,6.617V46.2c0,1.025,0.831,1.855,1.855,1.855
			s1.855-0.831,1.855-1.855v-6.141c0.879,0.277,1.814,0.427,2.783,0.427h7.051v0.005c0,4.195,3.413,7.607,7.607,7.607
			s7.607-3.413,7.607-7.607v-0.023h20.41v0.023c0,4.195,3.413,7.607,7.607,7.607c4.195,0,7.607-3.413,7.607-7.607v-0.023
			l7.045,0.013c0.002,0,0.004,0,0.006,0c0.958,0,1.894-0.146,2.783-0.424v29.338c0,1.023-0.832,1.855-1.855,1.855H59.684
			c-1.025,0-1.855,0.831-1.855,1.855s0.831,1.855,1.855,1.855H86.65c3.069,0,5.566-2.497,5.566-5.566V37.826
			c0.021-0.021,0.043-0.04,0.064-0.061c1.754-1.752,2.72-4.082,2.72-6.562V13.73C95,12.706,94.169,11.875,93.145,11.875z
			 M39.514,4.302c0-0.326,0.265-0.591,0.591-0.591h26.293c0.326,0,0.591,0.265,0.591,0.591v7.573H39.514V4.302z M39.336,40.491
			c0,2.149-1.748,3.896-3.896,3.896c-2.149,0-3.896-1.748-3.896-3.896v-6.132h7.793L39.336,40.491L39.336,40.491z M74.961,40.491
			c0,2.149-1.748,3.896-3.896,3.896c-2.149,0-3.896-1.748-3.896-3.896v-6.132h7.793v6.132H74.961z M91.289,31.203
			c0,1.488-0.579,2.886-1.632,3.937c-1.051,1.051-2.448,1.629-3.932,1.629c-0.001,0-0.003,0-0.004,0l-7.049-0.013V33.06
			c0-1.33-1.082-2.412-2.412-2.412H65.869c-1.33,0-2.412,1.082-2.412,2.412v3.697h-20.41V33.06c0-1.33-1.082-2.412-2.412-2.412
			H30.244c-1.33,0-2.412,1.082-2.412,2.412v3.715h-7.051c-3.069,0-5.566-2.497-5.566-5.566V15.586h76.074
			C91.289,15.586,91.289,31.203,91.289,31.203z"/>
	</g>
</g>
<g>
	<g>
		<path class="st0" d="M53.252,53.374c-1.212,0-2.198-0.818-2.198-1.824s0.986-1.824,2.198-1.824s2.198,0.818,2.198,1.824
			c0,1.025,0.831,1.855,1.855,1.855c1.025,0,1.855-0.831,1.855-1.855c0-2.445-1.702-4.523-4.054-5.253V46.2
			c0-1.025-0.831-1.855-1.855-1.855s-1.855,0.831-1.855,1.855v0.097c-2.352,0.73-4.054,2.809-4.054,5.253
			c0,3.052,2.651,5.535,5.909,5.535c1.212,0,2.198,0.818,2.198,1.824s-0.986,1.824-2.198,1.824s-2.198-0.818-2.198-1.824
			c0-1.025-0.831-1.855-1.855-1.855c-1.025,0-1.855,0.831-1.855,1.855c0,2.446,1.703,4.524,4.056,5.254
			c0.024,1.004,0.843,1.811,1.853,1.811s1.829-0.807,1.853-1.811c2.353-0.73,4.056-2.809,4.056-5.254
			C59.161,55.856,56.51,53.374,53.252,53.374z"/>
	</g>
</g>
<g>
	<g>
		<path class="st0" d="M22.637,61.602c-5.934,0-10.762,4.828-10.762,10.762s4.828,10.762,10.762,10.762s10.762-4.828,10.762-10.762
			C33.398,66.429,28.571,61.602,22.637,61.602z M22.637,79.414c-3.888,0-7.051-3.163-7.051-7.051s3.163-7.051,7.051-7.051
			s7.051,3.163,7.051,7.051S26.524,79.414,22.637,79.414z"/>
	</g>
</g>
<g>
	<g>
		<path class="st0" d="M45.27,68.651c0-0.913-0.664-1.689-1.565-1.832l-2.559-0.406l-1.221-2.944l1.521-2.098
			c0.536-0.738,0.455-1.757-0.19-2.402l-5.239-5.236c-0.646-0.645-1.664-0.725-2.402-0.189l-2.096,1.522l-2.947-1.219l-0.407-2.558
			c-0.143-0.901-0.92-1.564-1.832-1.564h-0.001l-7.407,0.003c-0.912,0-1.689,0.664-1.832,1.565l-0.406,2.559l-2.944,1.221
			l-2.098-1.521c-0.738-0.535-1.757-0.455-2.402,0.19l-5.236,5.239c-0.645,0.646-0.725,1.664-0.189,2.402l1.522,2.096l-1.219,2.947
			l-2.558,0.407C0.663,66.979,0,67.756,0,68.669l0.003,7.407c0,0.912,0.664,1.689,1.565,1.832l2.559,0.406l1.221,2.944l-1.521,2.098
			c-0.536,0.738-0.455,1.757,0.19,2.402l5.239,5.236c0.645,0.645,1.664,0.725,2.402,0.189l2.096-1.522l2.947,1.219l0.407,2.558
			C17.252,94.337,18.029,95,18.941,95h0.001l7.407-0.003c0.912,0,1.689-0.664,1.832-1.565l0.406-2.559l2.944-1.221l2.098,1.521
			c0.738,0.536,1.757,0.455,2.402-0.19l5.236-5.239c0.645-0.646,0.725-1.664,0.189-2.402l-1.522-2.096l1.219-2.947l2.558-0.407
			c0.901-0.143,1.564-0.921,1.564-1.833L45.27,68.651z M39.543,74.797c-0.637,0.101-1.176,0.527-1.423,1.123l-2.014,4.866
			c-0.247,0.596-0.166,1.278,0.213,1.8l1.202,1.654l-2.996,2.998l-1.656-1.201c-0.522-0.379-1.204-0.459-1.8-0.212l-4.863,2.017
			c-0.596,0.247-1.021,0.786-1.122,1.424l-0.32,2.021l-4.239,0.002l-0.322-2.019c-0.101-0.637-0.527-1.176-1.123-1.423l-4.866-2.014
			c-0.228-0.094-0.469-0.141-0.709-0.141c-0.386,0-0.769,0.12-1.091,0.354l-1.654,1.202l-2.998-2.996l1.201-1.656
			c0.379-0.522,0.459-1.204,0.212-1.8l-2.017-4.863c-0.247-0.596-0.786-1.021-1.424-1.122l-2.021-0.32l-0.002-4.239L5.73,69.93
			c0.637-0.101,1.176-0.527,1.423-1.123l2.014-4.866c0.247-0.596,0.166-1.278-0.213-1.8l-1.202-1.654l2.996-2.998l1.656,1.201
			c0.522,0.379,1.204,0.459,1.8,0.212l4.863-2.017c0.596-0.247,1.021-0.786,1.122-1.424l0.32-2.021l4.239-0.002l0.322,2.019
			c0.101,0.637,0.527,1.176,1.123,1.423l4.866,2.014c0.596,0.247,1.278,0.166,1.8-0.213l1.654-1.202l2.998,2.996l-1.201,1.656
			c-0.379,0.522-0.459,1.204-0.212,1.8l2.017,4.863c0.247,0.596,0.786,1.021,1.424,1.122l2.021,0.32l0.002,4.239L39.543,74.797z"/>
	</g>
</g>
</svg>
