<?xml version="1.0" encoding="utf-8"?>
<!-- Generator: Adobe Illustrator 22.0.0, SVG Export Plug-In . SVG Version: 6.00 Build 0)  -->
<svg version="1.1" id="Capa_1" xmlns="http://www.w3.org/2000/svg" xmlns:xlink="http://www.w3.org/1999/xlink" x="0px" y="0px"
	 width="78.672px" height="95px" viewBox="0 0 78.672 95" style="enable-background:new 0 0 78.672 95;" xml:space="preserve">
<style type="text/css">
	.st0{fill:#FFFFFF;}
</style>
<g>
	<g>
		<path class="st0" d="M39.336,30.616c-9.31,0-16.884,7.574-16.884,16.884c0,3.278,0.94,6.34,2.563,8.932
			c0.049,0.095,0.109,0.188,0.176,0.275c3.016,4.618,8.23,7.676,14.145,7.676c9.31,0,16.884-7.574,16.884-16.884
			S48.646,30.616,39.336,30.616z M27.144,52.48c-0.63-1.537-0.98-3.219-0.98-4.98c0-7.263,5.909-13.173,13.174-13.173
			c4.445,0,8.38,2.215,10.766,5.597l-10.192,10.19l-3.889-3.889c-0.725-0.725-1.899-0.725-2.624,0L27.144,52.48z M39.336,60.672
			c-4.131,0-7.822-1.913-10.239-4.898l5.614-5.614l3.889,3.889c0.725,0.725,1.899,0.725,2.624,0l10.634-10.634
			c0.421,1.286,0.651,2.658,0.651,4.084C52.509,54.763,46.599,60.672,39.336,60.672z"/>
	</g>
</g>
<g>
	<g>
		<path class="st0" d="M67.881,46.219c-0.291-9.067-2.829-17.96-7.383-25.822c-4.848-8.37-11.847-15.339-20.24-20.151
			c-0.571-0.327-1.274-0.327-1.846,0c-8.391,4.813-15.39,11.781-20.239,20.152c-4.554,7.862-7.091,16.755-7.383,25.822
			C4.286,49.011,0,55.434,0,62.594v13.109c0,1.025,0.831,1.856,1.856,1.856H29.12c0.4,5.581,2.843,10.927,6.843,14.868l2.07,2.04
			C38.395,94.822,38.866,95,39.336,95s0.941-0.178,1.302-0.534l2.07-2.04c4-3.941,6.443-9.287,6.843-14.868h5.741v9.576
			c0,1.025,0.831,1.856,1.856,1.856c1.025,0,1.856-0.831,1.856-1.856v-9.576h17.812c1.025,0,1.856-0.831,1.856-1.856V62.594
			C78.672,55.434,74.386,49.011,67.881,46.219z M39.336,4.007c5.834,3.511,10.821,8.103,14.765,13.434h-29.53
			C28.515,12.11,33.502,7.518,39.336,4.007z M3.711,73.847V62.594c0-5.102,2.748-9.731,7.051-12.217v21.615
			c0,0.651,0.113,1.274,0.32,1.856L3.711,73.847L3.711,73.847z M40.104,89.783l-0.768,0.756l-0.768-0.756
			c-3.297-3.248-5.334-7.632-5.725-12.225H45.83C45.438,82.151,43.4,86.535,40.104,89.783z M64.199,71.992
			c0,1.023-0.832,1.856-1.856,1.856H16.328c-1.023,0-1.856-0.832-1.856-1.856V47.98c0-6.719,1.327-13.265,3.79-19.313h8.401
			c1.025,0,1.856-0.831,1.856-1.856s-0.831-1.856-1.856-1.856h-6.716c0.652-1.297,1.359-2.567,2.118-3.804h34.538
			c4.877,7.952,7.595,17.213,7.595,26.828C64.199,47.98,64.199,71.992,64.199,71.992z M74.961,73.847h-7.37
			c0.206-0.581,0.32-1.205,0.32-1.856V50.376c4.302,2.486,7.051,7.115,7.051,12.217L74.961,73.847L74.961,73.847z"/>
	</g>
</g>
<g>
	<g>
		<path class="st0" d="M34.71,25.499c-0.345-0.345-0.824-0.544-1.312-0.544s-0.967,0.199-1.312,0.544
			c-0.345,0.345-0.544,0.824-0.544,1.312s0.199,0.967,0.544,1.312c0.345,0.345,0.824,0.544,1.312,0.544s0.967-0.199,1.312-0.544
			s0.544-0.824,0.544-1.312S35.055,25.844,34.71,25.499z"/>
	</g>
</g>
<g>
	<g>
		<path class="st0" d="M21.524,82.522c-1.025,0-1.856,0.831-1.856,1.856v5.716c0,1.025,0.831,1.856,1.856,1.856
			s1.856-0.831,1.856-1.856v-5.716C23.379,83.353,22.548,82.522,21.524,82.522z"/>
	</g>
</g>
<g>
	<g>
		<path class="st0" d="M58.46,91.832c-0.345-0.345-0.824-0.544-1.312-0.544s-0.967,0.199-1.312,0.544s-0.544,0.824-0.544,1.312
			s0.199,0.967,0.544,1.312C56.182,94.801,56.66,95,57.148,95s0.967-0.199,1.312-0.544s0.544-0.824,0.544-1.312
			C59.004,92.657,58.805,92.178,58.46,91.832z"/>
	</g>
</g>
</svg>
