<?xml version="1.0" encoding="utf-8"?>
<!-- Generator: Adobe Illustrator 22.0.0, SVG Export Plug-In . SVG Version: 6.00 Build 0)  -->
<svg version="1.1" id="Capa_1" xmlns="http://www.w3.org/2000/svg" xmlns:xlink="http://www.w3.org/1999/xlink" x="0px" y="0px"
	 width="90px" height="95px" viewBox="0 0 90 95" style="enable-background:new 0 0 90 95;" xml:space="preserve">
<style type="text/css">
	.st0{fill:#FFFFFF;}
</style>
<g>
	<g>
		<path class="st0" d="M89.485,19.009L73.489,3.015c-0.33-0.33-0.777-0.515-1.243-0.515H20.039c-2.908,0-5.273,2.366-5.273,5.273
			v3.351C6.13,14.512,0,22.928,0,32.75c0,0.971,0.787,1.758,1.758,1.758h21.461c0.971,0,1.758-0.787,1.758-1.758V11.289
			c0-0.971-0.787-1.758-1.758-1.758c-1.694,0-3.346,0.184-4.938,0.53V7.773c0-0.969,0.789-1.758,1.758-1.758h50.449v10.723
			c0,2.908,2.366,5.273,5.273,5.273h10.723v65.215c0,0.969-0.789,1.758-1.758,1.758H20.039c-0.969,0-1.758-0.789-1.758-1.758V72.168
			c0-0.971-0.787-1.758-1.758-1.758s-1.758,0.787-1.758,1.758v15.059c0,2.908,2.366,5.273,5.273,5.273h64.688
			c2.908,0,5.274-2.366,5.274-5.273V20.252C90,19.785,89.815,19.338,89.485,19.009z M21.461,13.125v17.868H3.593
			C4.434,21.527,11.996,13.965,21.461,13.125z M75.762,18.496c-0.969,0-1.758-0.789-1.758-1.758V8.501L84,18.496H75.762z"/>
	</g>
</g>
<g>
	<g>
		<path class="st0" d="M17.766,64.538c-0.327-0.327-0.78-0.515-1.243-0.515s-0.916,0.188-1.243,0.515
			c-0.327,0.327-0.515,0.78-0.515,1.243c0,0.463,0.188,0.916,0.515,1.243c0.327,0.327,0.78,0.515,1.243,0.515
			s0.916-0.188,1.243-0.515c0.327-0.327,0.515-0.78,0.515-1.243C18.281,65.318,18.093,64.865,17.766,64.538z"/>
	</g>
</g>
<g>
	<g>
		<path class="st0" d="M29.515,15.828c-0.971,0-1.758,0.787-1.758,1.758v19.703H8.054c-0.971,0-1.758,0.787-1.758,1.758
			c0,12.803,10.416,23.219,23.219,23.219S52.734,51.85,52.734,39.047S42.318,15.828,29.515,15.828z M31.273,19.421
			c4.115,0.365,7.87,2.002,10.87,4.512l-10.87,10.869C31.273,34.802,31.273,19.421,31.273,19.421z M29.515,58.75
			c-10.272,0-18.734-7.901-19.625-17.946h19.625c0.485,0,0.924-0.197,1.242-0.514c0,0,0,0,0.001-0.001l13.871-13.871
			c2.864,3.422,4.59,7.827,4.59,12.628C49.219,49.911,40.38,58.75,29.515,58.75z"/>
	</g>
</g>
<g>
	<g>
		<path class="st0" d="M77.005,57.977c-2.908,0-5.273,2.366-5.273,5.273c0,0.729,0.149,1.423,0.417,2.055L62.021,75.433
			c-0.696-0.339-1.477-0.53-2.302-0.53c-0.805,0-1.568,0.182-2.252,0.506l-6.725-6.725c0.233-0.595,0.362-1.242,0.362-1.918
			c0-2.908-2.366-5.273-5.273-5.273s-5.273,2.366-5.273,5.273c0,0.788,0.175,1.535,0.486,2.207l-6.45,6.45
			c-0.687-0.329-1.456-0.513-2.267-0.513c-2.908,0-5.273,2.366-5.273,5.273c0,2.908,2.366,5.273,5.273,5.273S37.6,83.09,37.6,80.183
			c0-0.815-0.186-1.587-0.517-2.277l6.414-6.414c0.704,0.349,1.497,0.547,2.335,0.547c0.947,0,1.835-0.252,2.603-0.69l6.535,6.535
			c-0.336,0.693-0.525,1.471-0.525,2.292c0,2.908,2.366,5.273,5.273,5.273s5.273-2.366,5.273-5.273c0-0.801-0.18-1.561-0.502-2.242
			l10.033-10.033c0.74,0.396,1.584,0.622,2.481,0.622c2.908,0,5.273-2.366,5.273-5.273C82.276,60.343,79.913,57.977,77.005,57.977z
			 M32.327,81.942c-0.969,0-1.758-0.789-1.758-1.758s0.789-1.758,1.758-1.758c0.472,0,0.9,0.188,1.216,0.492
			c0.007,0.007,0.013,0.015,0.02,0.022c0.008,0.008,0.018,0.015,0.026,0.024c0.306,0.316,0.495,0.746,0.495,1.22
			C34.085,81.153,33.296,81.942,32.327,81.942z M45.832,68.524c-0.969,0-1.758-0.789-1.758-1.758s0.789-1.758,1.758-1.758
			c0.969,0,1.758,0.789,1.758,1.758C47.59,67.736,46.801,68.524,45.832,68.524z M59.719,81.935c-0.969,0-1.758-0.789-1.758-1.758
			s0.789-1.758,1.758-1.758c0.969,0,1.758,0.789,1.758,1.758C61.477,81.146,60.688,81.935,59.719,81.935z M77.005,65.009
			c-0.969,0-1.758-0.789-1.758-1.758s0.789-1.758,1.758-1.758s1.758,0.789,1.758,1.758C78.762,64.22,77.974,65.009,77.005,65.009z"
			/>
	</g>
</g>
<g>
	<g>
		<path class="st0" d="M68.219,43.809h-9.278c-0.971,0-1.758,0.787-1.758,1.758s0.787,1.758,1.758,1.758h9.278
			c0.971,0,1.758-0.787,1.758-1.758S69.19,43.809,68.219,43.809z"/>
	</g>
</g>
<g>
	<g>
		<path class="st0" d="M77.465,44.324c-0.327-0.327-0.78-0.515-1.243-0.515c-0.462,0-0.916,0.188-1.243,0.515
			c-0.327,0.327-0.515,0.78-0.515,1.243s0.188,0.916,0.515,1.243c0.327,0.327,0.779,0.515,1.243,0.515
			c0.462,0,0.916-0.188,1.243-0.515c0.327-0.327,0.515-0.78,0.515-1.243S77.792,44.651,77.465,44.324z"/>
	</g>
</g>
<g>
	<g>
		<path class="st0" d="M80.414,26.934H58.941c-0.971,0-1.758,0.787-1.758,1.758s0.787,1.758,1.758,1.758h21.472
			c0.971,0,1.758-0.787,1.758-1.758S81.384,26.934,80.414,26.934z"/>
	</g>
</g>
<g>
	<g>
		<path class="st0" d="M80.414,35.371H58.941c-0.971,0-1.758,0.787-1.758,1.758s0.787,1.758,1.758,1.758h21.472
			c0.971,0,1.758-0.787,1.758-1.758S81.384,35.371,80.414,35.371z"/>
	</g>
</g>
</svg>
