<?xml version="1.0" encoding="utf-8"?>
<!-- Generator: Adobe Illustrator 22.0.0, SVG Export Plug-In . SVG Version: 6.00 Build 0)  -->
<svg version="1.1" id="Capa_1" xmlns="http://www.w3.org/2000/svg" xmlns:xlink="http://www.w3.org/1999/xlink" x="0px" y="0px"
	 width="97px" height="95px" viewBox="0 0 97 95" style="enable-background:new 0 0 97 95;" xml:space="preserve">
<style type="text/css">
	.st0{fill:#FFFFFF;}
</style>
<g>
	<g>
		<path class="st0" d="M67.98,2.817H28.972c-3.132,0-5.681,2.548-5.681,5.681v28.783c0,3.132,2.548,5.681,5.681,5.681H67.98
			c3.132,0,5.681-2.548,5.681-5.681V8.498C73.661,5.365,71.112,2.817,67.98,2.817z M69.874,37.28c0,1.044-0.85,1.894-1.894,1.894
			H28.972c-1.044,0-1.894-0.85-1.894-1.894V8.498c0-1.044,0.85-1.894,1.894-1.894H67.98c1.044,0,1.894,0.85,1.894,1.894V37.28z"/>
	</g>
</g>
<g>
	<g>
		<path class="st0" d="M55.482,28.57H33.039c-1.046,0-1.894,0.848-1.894,1.894s0.848,1.894,1.894,1.894h22.444
			c1.046,0,1.894-0.848,1.894-1.894C57.376,29.418,56.528,28.57,55.482,28.57z"/>
	</g>
</g>
<g>
	<g>
		<path class="st0" d="M64.833,29.124c-0.352-0.352-0.841-0.555-1.339-0.555s-0.986,0.203-1.338,0.555
			c-0.352,0.352-0.555,0.841-0.555,1.339c0,0.498,0.203,0.986,0.555,1.339c0.352,0.352,0.841,0.555,1.338,0.555
			c0.498,0,0.986-0.203,1.339-0.555c0.352-0.352,0.555-0.841,0.555-1.339S65.185,29.477,64.833,29.124z"/>
	</g>
</g>
<g>
	<g>
		<path class="st0" d="M63.494,10.391H33.039c-1.046,0-1.894,0.848-1.894,1.894s0.848,1.894,1.894,1.894h30.456
			c1.046,0,1.894-0.848,1.894-1.894S64.54,10.391,63.494,10.391z"/>
	</g>
</g>
<g>
	<g>
		<path class="st0" d="M63.494,19.481H33.039c-1.046,0-1.894,0.848-1.894,1.894s0.848,1.894,1.894,1.894h30.456
			c1.046,0,1.894-0.848,1.894-1.894S64.54,19.481,63.494,19.481z"/>
	</g>
</g>
<g>
	<g>
		<path class="st0" d="M22.344,64.158H5.681C2.548,64.158,0,66.706,0,69.838v16.664c0,3.132,2.548,5.681,5.681,5.681h16.664
			c3.132,0,5.681-2.548,5.681-5.681V69.838C28.025,66.706,25.477,64.158,22.344,64.158z M24.238,86.502
			c0,1.044-0.85,1.894-1.894,1.894H5.681c-1.044,0-1.894-0.85-1.894-1.894V69.838c0-1.044,0.85-1.894,1.894-1.894h16.664
			c1.044,0,1.894,0.85,1.894,1.894L24.238,86.502L24.238,86.502z"/>
	</g>
</g>
<g>
	<g>
		<path class="st0" d="M56.832,64.158H40.168c-3.132,0-5.681,2.548-5.681,5.681v16.664c0,3.132,2.548,5.681,5.681,5.681h16.664
			c3.132,0,5.681-2.548,5.681-5.681V69.838C62.513,66.706,59.964,64.158,56.832,64.158z M58.725,86.502
			c0,1.044-0.85,1.894-1.894,1.894H40.168c-1.044,0-1.894-0.85-1.894-1.894V69.838c0-1.044,0.85-1.894,1.894-1.894h16.664
			c1.044,0,1.894,0.85,1.894,1.894v16.664H58.725z"/>
	</g>
</g>
<g>
	<g>
		<path class="st0" d="M91.319,64.158H74.656c-3.132,0-5.681,2.548-5.681,5.681v16.664c0,3.132,2.548,5.681,5.681,5.681H91.32
			c3.132,0,5.681-2.548,5.681-5.681V69.838C97,66.706,94.452,64.158,91.319,64.158z M93.213,86.502c0,1.044-0.85,1.894-1.894,1.894
			H74.656c-1.044,0-1.894-0.85-1.894-1.894V69.838c0-1.044,0.85-1.894,1.894-1.894H91.32c1.044,0,1.894,0.85,1.894,1.894
			L93.213,86.502L93.213,86.502z"/>
	</g>
</g>
<g>
	<g>
		<path class="st0" d="M81.094,49.423h-30.7v-2.296c0-1.046-0.848-1.894-1.894-1.894s-1.894,0.848-1.894,1.894v2.296H38.25
			c-1.046,0-1.894,0.848-1.894,1.894s0.848,1.894,1.894,1.894h8.356v5.164c0,1.046,0.848,1.894,1.894,1.894s1.894-0.848,1.894-1.894
			v-5.164h30.7v5.909c0,1.046,0.848,1.894,1.894,1.894s1.894-0.848,1.894-1.894v-5.909C84.881,51.122,83.182,49.423,81.094,49.423z"
			/>
	</g>
</g>
<g>
	<g>
		<path class="st0" d="M24.238,49.423h-8.332c-2.088,0-3.787,1.699-3.787,3.787v5.909c0,1.046,0.848,1.894,1.894,1.894
			s1.894-0.848,1.894-1.894V53.21h8.332c1.046,0,1.894-0.848,1.894-1.894C26.132,50.271,25.284,49.423,24.238,49.423z"/>
	</g>
</g>
<g>
	<g>
		<path class="st0" d="M32.484,49.979c-0.352-0.352-0.841-0.555-1.339-0.555c-0.498,0-0.986,0.202-1.338,0.555
			c-0.352,0.352-0.555,0.841-0.555,1.339s0.203,0.986,0.555,1.338c0.352,0.352,0.841,0.555,1.338,0.555
			c0.498,0,0.986-0.203,1.339-0.555c0.352-0.352,0.555-0.841,0.555-1.338C33.039,50.817,32.837,50.331,32.484,49.979z"/>
	</g>
</g>
</svg>
