<?xml version="1.0" encoding="utf-8"?>
<!-- Generator: Adobe Illustrator 22.0.0, SVG Export Plug-In . SVG Version: 6.00 Build 0)  -->
<svg version="1.1" id="Capa_1" xmlns="http://www.w3.org/2000/svg" xmlns:xlink="http://www.w3.org/1999/xlink" x="0px" y="0px"
	 width="90px" height="95px" viewBox="0 0 90 95" style="enable-background:new 0 0 90 95;" xml:space="preserve">
<style type="text/css">
	.st0{fill:#4495F8;}
	.st1{fill:#3EDEDC;}
</style>
<g>
	<g>
		<path class="st0" d="M77.692,41.974c-0.001-0.864-0.629-1.6-1.483-1.735l-4.366-0.692l-2.248-5.422l2.595-3.578
			c0.508-0.7,0.431-1.664-0.18-2.275l-7.8-7.795c-0.612-0.611-1.577-0.687-2.275-0.179l-3.575,2.597l-5.426-2.245l-0.695-4.364
			c-0.136-0.853-0.872-1.481-1.736-1.481H45c-0.971,0-1.758,0.787-1.758,1.758s0.787,1.758,1.758,1.758h4.002l0.613,3.854
			c0.096,0.604,0.499,1.114,1.064,1.348l7.245,2.998c0.565,0.234,1.211,0.157,1.705-0.202l3.157-2.293l5.677,5.673l-2.292,3.16
			c-0.359,0.495-0.435,1.141-0.201,1.705l3.002,7.24c0.234,0.565,0.745,0.967,1.349,1.063l3.856,0.611l0.003,8.026l-3.853,0.613
			c-0.604,0.096-1.114,0.499-1.348,1.064l-2.998,7.245c-0.234,0.565-0.157,1.211,0.202,1.705l2.293,3.157l-5.673,5.677l-3.16-2.292
			c-0.495-0.359-1.141-0.435-1.705-0.201l-7.24,3.002c-0.565,0.234-0.967,0.745-1.063,1.349l-0.611,3.857H45
			c-0.971,0-1.758,0.787-1.758,1.758s0.787,1.758,1.758,1.758h5.526c0.865,0,1.601-0.629,1.736-1.483l0.692-4.368l5.422-2.248
			l3.578,2.595c0.699,0.507,1.664,0.431,2.275-0.18l7.795-7.8c0.611-0.612,0.687-1.576,0.179-2.275l-2.597-3.575l2.245-5.426
			l4.363-0.695c0.854-0.136,1.482-0.872,1.481-1.737L77.692,41.974z"/>
	</g>
</g>
<g>
	<g>
		<path class="st0" d="M44.984,59.002c-0.963,0.008-1.742,0.792-1.742,1.758c0,0.971,0.787,1.758,1.758,1.758
			c0.023,0,0.059-0.001,0.081-0.002c0.97-0.037,1.726-0.854,1.689-1.824C46.733,59.734,45.935,58.991,44.984,59.002z"/>
	</g>
</g>
<g>
	<g>
		<path class="st0" d="M45,32.483c-0.971,0-1.758,0.787-1.758,1.758c0,0.971,0.787,1.758,1.758,1.758
			c6.342,0,11.502,5.16,11.502,11.502c0,4.281-2.355,8.182-6.145,10.181c-0.859,0.453-1.188,1.516-0.735,2.375
			c0.315,0.597,0.925,0.938,1.556,0.938c0.276,0,0.557-0.065,0.818-0.203c4.947-2.609,8.02-7.702,8.02-13.29
			C60.017,39.22,53.281,32.483,45,32.483z"/>
	</g>
</g>
<g>
	<g>
		<path class="st0" d="M10.195,80.547H1.758C0.787,80.547,0,81.334,0,82.305v8.438c0,0.97,0.787,1.757,1.758,1.757h8.438
			c0.971,0,1.758-0.787,1.758-1.758v-8.438C11.953,81.334,11.166,80.547,10.195,80.547z M8.438,88.984H3.516v-4.922h4.922V88.984z"
			/>
	</g>
</g>
<g>
	<g>
		<path class="st0" d="M88.242,80.547h-8.438c-0.971,0-1.758,0.787-1.758,1.758v8.438c0,0.971,0.787,1.758,1.758,1.758h8.438
			C89.213,92.5,90,91.713,90,90.742v-8.438C90,81.334,89.213,80.547,88.242,80.547z M86.484,88.984h-4.922v-4.922h4.922V88.984z"/>
	</g>
</g>
<g>
	<g>
		<path class="st0" d="M10.195,2.5H1.758C0.787,2.5,0,3.287,0,4.258v8.438c0,0.971,0.787,1.758,1.758,1.758h8.438
			c0.971,0,1.758-0.787,1.758-1.758V4.258C11.953,3.287,11.166,2.5,10.195,2.5z M8.438,10.938H3.516V6.016h4.922V10.938z"/>
	</g>
</g>
<g>
	<g>
		<path class="st0" d="M88.242,2.5h-8.438c-0.971,0-1.758,0.787-1.758,1.758v8.438c0,0.971,0.787,1.758,1.758,1.758h8.438
			c0.971,0,1.758-0.787,1.758-1.758V4.258C90,3.287,89.213,2.5,88.242,2.5z M86.484,10.938h-4.922V6.016h4.922V10.938z"/>
	</g>
</g>
<g>
	<g>
		<path class="st1" d="M84.023,70.628c-0.971,0-1.758,0.787-1.758,1.758v1.758c0,0.971,0.787,1.758,1.758,1.758
			s1.758-0.787,1.758-1.758v-1.758C85.781,71.415,84.994,70.628,84.023,70.628z"/>
	</g>
</g>
<g>
	<g>
		<path class="st1" d="M84.023,61.839c-0.971,0-1.758,0.787-1.758,1.758v1.758c0,0.971,0.787,1.758,1.758,1.758
			s1.758-0.787,1.758-1.758v-1.758C85.781,62.626,84.994,61.839,84.023,61.839z"/>
	</g>
</g>
<g>
	<g>
		<path class="st1" d="M84.023,19.379c-0.971,0-1.758,0.787-1.758,1.758v0.272c0,0.971,0.787,1.758,1.758,1.758
			s1.758-0.787,1.758-1.758v-0.272C85.781,20.166,84.994,19.379,84.023,19.379z"/>
	</g>
</g>
<g>
	<g>
		<path class="st1" d="M84.023,53.05c-0.971,0-1.758,0.787-1.758,1.758v1.758c0,0.971,0.787,1.758,1.758,1.758
			s1.758-0.787,1.758-1.758v-1.758C85.781,53.837,84.994,53.05,84.023,53.05z"/>
	</g>
</g>
<g>
	<g>
		<path class="st1" d="M84.023,26.682c-0.971,0-1.758,0.787-1.758,1.758v1.758c0,0.971,0.787,1.758,1.758,1.758
			s1.758-0.787,1.758-1.758V28.44C85.781,27.469,84.994,26.682,84.023,26.682z"/>
	</g>
</g>
<g>
	<g>
		<path class="st1" d="M84.023,44.261c-0.971,0-1.758,0.787-1.758,1.758v1.758c0,0.971,0.787,1.758,1.758,1.758
			s1.758-0.787,1.758-1.758v-1.758C85.781,45.048,84.994,44.261,84.023,44.261z"/>
	</g>
</g>
<g>
	<g>
		<path class="st1" d="M84.023,35.471c-0.971,0-1.758,0.787-1.758,1.758v1.758c0,0.971,0.787,1.758,1.758,1.758
			s1.758-0.787,1.758-1.758v-1.758C85.781,36.258,84.994,35.471,84.023,35.471z"/>
	</g>
</g>
<g>
	<g>
		<path class="st1" d="M5.977,44.261c-0.971,0-1.758,0.787-1.758,1.758v1.758c0,0.971,0.787,1.758,1.758,1.758
			s1.758-0.787,1.758-1.758v-1.758C7.734,45.048,6.947,44.261,5.977,44.261z"/>
	</g>
</g>
<g>
	<g>
		<path class="st1" d="M5.977,53.05c-0.971,0-1.758,0.787-1.758,1.758v1.758c0,0.971,0.787,1.758,1.758,1.758
			s1.758-0.787,1.758-1.758v-1.758C7.734,53.837,6.947,53.05,5.977,53.05z"/>
	</g>
</g>
<g>
	<g>
		<path class="st1" d="M5.977,19.379c-0.971,0-1.758,0.787-1.758,1.758v0.272c0,0.971,0.787,1.758,1.758,1.758
			s1.758-0.787,1.758-1.758v-0.272C7.734,20.166,6.947,19.379,5.977,19.379z"/>
	</g>
</g>
<g>
	<g>
		<path class="st1" d="M5.977,35.471c-0.971,0-1.758,0.787-1.758,1.758v1.758c0,0.971,0.787,1.758,1.758,1.758
			s1.758-0.787,1.758-1.758v-1.758C7.734,36.258,6.947,35.471,5.977,35.471z"/>
	</g>
</g>
<g>
	<g>
		<path class="st1" d="M5.977,61.839c-0.971,0-1.758,0.787-1.758,1.758v1.758c0,0.971,0.787,1.758,1.758,1.758
			s1.758-0.787,1.758-1.758v-1.758C7.734,62.626,6.947,61.839,5.977,61.839z"/>
	</g>
</g>
<g>
	<g>
		<path class="st1" d="M5.977,26.682c-0.971,0-1.758,0.787-1.758,1.758v1.758c0,0.971,0.787,1.758,1.758,1.758
			s1.758-0.787,1.758-1.758V28.44C7.734,27.469,6.947,26.682,5.977,26.682z"/>
	</g>
</g>
<g>
	<g>
		<path class="st1" d="M5.977,70.628c-0.971,0-1.758,0.787-1.758,1.758v1.758c0,0.971,0.787,1.758,1.758,1.758
			s1.758-0.787,1.758-1.758v-1.758C7.734,71.415,6.947,70.628,5.977,70.628z"/>
	</g>
</g>
<g>
	<g>
		<path class="st1" d="M55.411,84.906h-1.758c-0.971,0-1.758,0.787-1.758,1.758s0.787,1.758,1.758,1.758h1.758
			c0.971,0,1.758-0.787,1.758-1.758S56.382,84.906,55.411,84.906z"/>
	</g>
</g>
<g>
	<g>
		<path class="st1" d="M37.833,84.906h-1.758c-0.971,0-1.758,0.787-1.758,1.758s0.787,1.758,1.758,1.758h1.758
			c0.971,0,1.758-0.787,1.758-1.758S38.804,84.906,37.833,84.906z"/>
	</g>
</g>
<g>
	<g>
		<path class="st1" d="M46.622,84.906h-1.758c-0.971,0-1.758,0.787-1.758,1.758s0.787,1.758,1.758,1.758h1.758
			c0.971,0,1.758-0.787,1.758-1.758S47.593,84.906,46.622,84.906z"/>
	</g>
</g>
<g>
	<g>
		<path class="st1" d="M29.044,84.906h-1.758c-0.971,0-1.758,0.787-1.758,1.758s0.787,1.758,1.758,1.758h1.758
			c0.971,0,1.758-0.787,1.758-1.758S30.015,84.906,29.044,84.906z"/>
	</g>
</g>
<g>
	<g>
		<path class="st1" d="M64.2,84.906h-1.758c-0.971,0-1.758,0.787-1.758,1.758s0.787,1.758,1.758,1.758H64.2
			c0.971,0,1.758-0.787,1.758-1.758S65.171,84.906,64.2,84.906z"/>
	</g>
</g>
<g>
	<g>
		<path class="st1" d="M20.255,84.906h-1.758c-0.971,0-1.758,0.787-1.758,1.758s0.787,1.758,1.758,1.758h1.758
			c0.971,0,1.758-0.787,1.758-1.758S21.226,84.906,20.255,84.906z"/>
	</g>
</g>
<g>
	<g>
		<path class="st1" d="M71.503,84.906h-0.272c-0.971,0-1.758,0.787-1.758,1.758s0.787,1.758,1.758,1.758h0.272
			c0.971,0,1.758-0.787,1.758-1.758S72.474,84.906,71.503,84.906z"/>
	</g>
</g>
<g>
	<g>
		<path class="st1" d="M55.411,6.859h-1.758c-0.971,0-1.758,0.787-1.758,1.758s0.787,1.758,1.758,1.758h1.758
			c0.971,0,1.758-0.787,1.758-1.758S56.382,6.859,55.411,6.859z"/>
	</g>
</g>
<g>
	<g>
		<path class="st1" d="M46.622,6.859h-1.758c-0.971,0-1.758,0.787-1.758,1.758s0.787,1.758,1.758,1.758h1.758
			c0.971,0,1.758-0.787,1.758-1.758S47.593,6.859,46.622,6.859z"/>
	</g>
</g>
<g>
	<g>
		<path class="st1" d="M71.503,6.859h-0.272c-0.971,0-1.758,0.787-1.758,1.758s0.787,1.758,1.758,1.758h0.272
			c0.971,0,1.758-0.787,1.758-1.758S72.474,6.859,71.503,6.859z"/>
	</g>
</g>
<g>
	<g>
		<path class="st1" d="M64.2,6.859h-1.758c-0.971,0-1.758,0.787-1.758,1.758s0.787,1.758,1.758,1.758H64.2
			c0.971,0,1.758-0.787,1.758-1.758S65.171,6.859,64.2,6.859z"/>
	</g>
</g>
<g>
	<g>
		<path class="st1" d="M37.833,6.859h-1.758c-0.971,0-1.758,0.787-1.758,1.758s0.787,1.758,1.758,1.758h1.758
			c0.971,0,1.758-0.787,1.758-1.758S38.804,6.859,37.833,6.859z"/>
	</g>
</g>
<g>
	<g>
		<path class="st1" d="M29.044,6.859h-1.758c-0.971,0-1.758,0.787-1.758,1.758s0.787,1.758,1.758,1.758h1.758
			c0.971,0,1.758-0.787,1.758-1.758S30.015,6.859,29.044,6.859z"/>
	</g>
</g>
<g>
	<g>
		<path class="st1" d="M20.255,6.859h-1.758c-0.971,0-1.758,0.787-1.758,1.758s0.787,1.758,1.758,1.758h1.758
			c0.971,0,1.758-0.787,1.758-1.758S21.226,6.859,20.255,6.859z"/>
	</g>
</g>
<g>
	<g>
		<path class="st0" d="M27.984,40.808c-0.327-0.327-0.78-0.515-1.243-0.515c-0.464,0-0.916,0.188-1.243,0.515
			c-0.329,0.327-0.515,0.779-0.515,1.243c0,0.462,0.186,0.916,0.515,1.243c0.327,0.327,0.779,0.515,1.243,0.515
			c0.462,0,0.916-0.188,1.243-0.515s0.515-0.78,0.515-1.243S28.311,41.135,27.984,40.808z"/>
	</g>
</g>
<g>
	<g>
		<path class="st0" d="M35.982,13.955H28.75c-2.077,0-3.767,1.69-3.767,3.767v18.235c0,0.971,0.787,1.758,1.758,1.758
			c0.971,0,1.758-0.787,1.758-1.758v-7.638h7.734v35.502h-7.734V48.906c0-0.971-0.787-1.758-1.758-1.758
			c-0.971,0-1.758,0.787-1.758,1.758v16.673c0,0.243,0.05,0.482,0.147,0.705l5.625,12.857c0.28,0.64,0.912,1.053,1.61,1.053
			c0.698,0,1.33-0.413,1.61-1.053L39.6,66.284c0.097-0.222,0.147-0.462,0.147-0.705V17.722
			C39.749,15.645,38.059,13.955,35.982,13.955z M32.366,74.051l-2.937-6.714h5.874L32.366,74.051z M36.233,24.804h-7.735l0,0v-7.081
			c0-0.139,0.113-0.251,0.251-0.251h7.232c0.139,0,0.251,0.113,0.251,0.251v7.081H36.233z"/>
	</g>
</g>
</svg>
