<?xml version="1.0" encoding="utf-8"?>
<!-- Generator: Adobe Illustrator 22.0.0, SVG Export Plug-In . SVG Version: 6.00 Build 0)  -->
<svg version="1.1" id="Capa_1" xmlns="http://www.w3.org/2000/svg" xmlns:xlink="http://www.w3.org/1999/xlink" x="0px" y="0px"
	 width="24.622px" height="20px" viewBox="0 0 24.622 20" style="enable-background:new 0 0 24.622 20;" xml:space="preserve">
<style type="text/css">
	.st0{fill:#3EDEDC;}
</style>
<g>
	<g>
		<path class="st0" d="M24.622,2.366c-0.906,0.402-1.879,0.674-2.9,0.795c1.043-0.625,1.842-1.616,2.22-2.793
			c-0.979,0.578-2.059,0.999-3.209,1.226C19.811,0.612,18.5,0,17.046,0c-2.789,0-5.051,2.262-5.051,5.05
			c0,0.395,0.045,0.782,0.131,1.151C7.928,5.99,4.206,3.979,1.715,0.923C1.28,1.668,1.032,2.536,1.032,3.462
			c0,1.752,0.892,3.299,2.246,4.203C2.451,7.637,1.672,7.41,0.991,7.031v0.063c0,2.446,1.742,4.488,4.051,4.953
			c-0.423,0.114-0.869,0.177-1.331,0.177c-0.326,0-0.642-0.032-0.951-0.094c0.643,2.008,2.508,3.468,4.717,3.508
			c-1.728,1.354-3.906,2.159-6.273,2.159c-0.408,0-0.809-0.025-1.205-0.069C2.236,19.163,4.89,20,7.742,20
			c9.291,0,14.37-7.696,14.37-14.37l-0.017-0.654C23.088,4.268,23.946,3.379,24.622,2.366z"/>
	</g>
</g>
</svg>
