<?xml version="1.0" encoding="utf-8"?>
<!-- Generator: Adobe Illustrator 22.0.0, SVG Export Plug-In . SVG Version: 6.00 Build 0)  -->
<svg version="1.1" id="Шар_1" xmlns="http://www.w3.org/2000/svg" xmlns:xlink="http://www.w3.org/1999/xlink" x="0px" y="0px"
	 width="9.991px" height="20px" viewBox="0 0 9.991 20" style="enable-background:new 0 0 9.991 20;" xml:space="preserve">
<style type="text/css">
	.st0{fill:#3EDEDC;}
</style>
<g>
	<path class="st0" d="M6.242,20c-1.209,0-2.419,0-3.628,0c0-0.14-0.009-0.279-0.009-0.419c0-2.94,0-5.87,0-8.809
		c0-0.121,0-0.949,0-1.07c-0.893,0-1.749,0-2.605,0c0-1.135,0-2.26,0-3.395c0.856,0,1.712,0,2.605,0c0-0.149-0.019-1.563,0-2.53
		c0.037-1.591,0.763-2.819,2.205-3.498C5.126,0.13,5.442,0.037,5.823,0c1.386,0,2.781,0,4.167,0c0,1.153,0,2.27,0,3.423
		c-0.121,0-1.823-0.009-2.586-0.009c-0.819,0-1.144,0.53-1.135,1.135c0.009,0.66,0,1.572,0,1.758c1.265,0,2.493,0,3.721,0
		c0,0.102-0.223,2.223-0.298,3.098c-0.019,0.205-0.074,0.27-0.288,0.27c-0.763-0.009-2.856,0-3.172,0
		C6.242,12.902,6.242,16.809,6.242,20z"/>
</g>
</svg>
