<?xml version="1.0" encoding="utf-8"?>
<!-- Generator: Adobe Illustrator 22.0.0, SVG Export Plug-In . SVG Version: 6.00 Build 0)  -->
<svg version="1.1" id="Шар_1" xmlns="http://www.w3.org/2000/svg" xmlns:xlink="http://www.w3.org/1999/xlink" x="0px" y="0px"
	 width="483.526px" height="106.25px" viewBox="0 0 483.526 106.25" style="enable-background:new 0 0 483.526 106.25;"
	 xml:space="preserve">
<style type="text/css">
	.st0{fill:#FFFFFF;}
	.st1{font-family:'Montserrat-Regular';}
	.st2{font-size:23.328px;}
</style>
<g>
	<g>
		<polygon class="st0" points="73.577,26.261 41.215,42.717 41.215,47.524 55.727,39.922 55.727,58.361 41.215,66.09 41.215,82.471 
			73.48,63.732 		"/>
		<polygon class="st0" points="0.223,21.437 0.133,21.359 0.11,21.372 0,63.923 18.265,74.468 18.265,30.592 		"/>
		<polygon class="st0" points="25.951,6.363 0.11,21.372 0.11,21.523 18.265,30.93 18.265,30.2 43.415,16.515 		"/>
		<polygon class="st0" points="0.223,21.437 18.265,30.592 18.265,30.592 		"/>
		<polygon class="st0" points="22.825,32.874 22.794,32.891 22.795,32.891 		"/>
		<polygon class="st0" points="38.428,24.385 27.066,30.567 27.066,30.567 		"/>
		<polygon class="st0" points="52.292,16.436 52.65,16.645 52.651,16.645 		"/>
		<polygon class="st0" points="22.794,32.891 22.794,32.891 22.795,32.891 22.795,32.891 		"/>
		<polygon class="st0" points="27.656,35.358 36.685,39.94 36.686,39.939 36.686,39.939 		"/>
		<polygon class="st0" points="36.685,85.103 22.794,77.083 22.794,77.214 36.686,85.233 36.686,85.102 36.685,85.102 		"/>
		<polygon class="st0" points="36.686,55.01 36.686,39.939 36.685,39.94 22.794,32.891 22.794,77.083 36.685,85.103 36.685,85.102 
			36.686,85.102 36.686,63.371 51.197,55.642 51.197,47.408 		"/>
		<path class="st0" d="M36.685,39.94"/>
		<polygon class="st0" points="73.703,21.115 36.905,0 30.508,3.773 52.651,16.645 52.65,16.645 52.651,16.646 24.831,31.802 
			38.696,38.914 		"/>
		<path class="st0" d="M22.795,32.891L22.795,32.891L22.795,32.891z"/>
		<polygon class="st0" points="22.795,32.891 22.795,32.891 22.795,32.891 		"/>
		<line class="st0" x1="22.795" y1="32.891" x2="22.794" y2="32.891"/>
		<line class="st0" x1="22.795" y1="32.891" x2="22.795" y2="32.891"/>
	</g>
	<g>
		<path class="st0" d="M189.641,14.829V25.93h-26.256v12.237h24.959v11.102h-24.959v22.204h-12.642V14.829H189.641z"/>
		<path class="st0" d="M243.286,33.63c0,9.076-3.594,14.938-10.778,17.585l14.344,20.259h-15.559l-12.561-18.071h-8.752v18.071
			h-12.642V14.829h21.475c8.805,0,15.086,1.486,18.841,4.457C241.408,22.258,243.286,27.039,243.286,33.63z M228.051,40.355
			c1.566-1.404,2.35-3.633,2.35-6.686c0-3.052-0.81-5.146-2.431-6.28c-1.621-1.135-4.457-1.702-8.509-1.702h-9.481v16.775h9.238
			C223.54,42.463,226.483,41.761,228.051,40.355z"/>
		<path class="st0" d="M253.251,14.829h12.642v56.645h-12.642V14.829z"/>
		<path class="st0" d="M323.104,22.244c5.401,4.943,8.104,11.818,8.104,20.624s-2.634,15.775-7.901,20.907
			c-5.268,5.133-13.304,7.698-24.109,7.698H279.83V14.829h20.016C309.948,14.829,317.701,17.301,323.104,22.244z M313.825,55.915
			c3.106-2.918,4.66-7.158,4.66-12.723s-1.554-9.847-4.66-12.845c-3.107-2.998-7.875-4.498-14.303-4.498h-7.05V60.29h8.023
			C306.275,60.291,310.718,58.832,313.825,55.915z"/>
		<path class="st0" d="M378.504,71.473l-5.268-12.236h-23.744l-5.268,12.236h-13.452l24.473-56.645h12.237l24.473,56.645H378.504z
			 M361.405,31.684l-7.131,16.45h14.181L361.405,31.684z"/>
		<path class="st0" d="M416.912,71.473H404.27V49.107l-19.611-34.278h13.695l12.237,21.069l12.236-21.069h13.695l-19.611,34.278
			L416.912,71.473L416.912,71.473z"/>
		<path class="st0" d="M455.85,26.134c-1.215,1-1.823,2.323-1.823,3.971s0.742,2.958,2.229,3.931
			c1.485,0.972,4.916,2.12,10.292,3.443c5.375,1.325,9.549,3.311,12.521,5.956c2.97,2.648,4.457,6.512,4.457,11.589
			c0,5.079-1.904,9.197-5.713,12.358c-3.809,3.16-8.82,4.74-15.032,4.74c-8.969,0-17.046-3.322-24.23-9.968l7.536-9.238
			c6.104,5.349,11.75,8.023,16.937,8.023c2.322,0,4.146-0.499,5.47-1.5c1.323-0.999,1.986-2.35,1.986-4.052
			c0-1.701-0.703-3.051-2.107-4.052c-1.406-0.999-4.188-2.012-8.347-3.039c-6.592-1.566-11.414-3.605-14.465-6.118
			c-3.053-2.512-4.579-6.455-4.579-11.831c0-5.375,1.931-9.522,5.794-12.439c3.862-2.917,8.684-4.376,14.465-4.376
			c3.781,0,7.563,0.648,11.345,1.945c3.781,1.296,7.077,3.134,9.886,5.51l-6.402,9.238c-4.917-3.728-9.996-5.591-15.235-5.591
			C458.727,24.635,457.066,25.135,455.85,26.134z"/>
	</g>
</g>
<g>
	<path class="st0" d="M100.098,25.712V14.943h40.924v9.543l-22.934,46.987h-13.776l21.88-45.694H111.93L100.098,25.712z"/>
</g>
<text transform="matrix(1 0 0 1 434.523 100.139)" class="st0 st1 st2">INC.</text>
</svg>
