<?xml version="1.0" encoding="utf-8"?>
<!-- Generator: Adobe Illustrator 22.0.0, SVG Export Plug-In . SVG Version: 6.00 Build 0)  -->
<svg version="1.1" id="Шар_1" xmlns="http://www.w3.org/2000/svg" xmlns:xlink="http://www.w3.org/1999/xlink" x="0px" y="0px"
	 width="487.444px" height="109.019px" viewBox="0 0 487.444 109.019" style="enable-background:new 0 0 487.444 109.019;"
	 xml:space="preserve">
<style type="text/css">
	.st0{fill:#4495F8;}
	.st1{fill:#FFFFFF;}
</style>
<g>
	<path class="st0" d="M152.94,41.729v3.815l-8.104,21.331l-5.015-1.672l7.413-19.26h-8.939v-4.215H152.94z"/>
	<path class="st1" d="M159.082,66.295V41.111h13.809l-0.618,4.143h-7.377v6.832h6.468v4.143h-6.468v10.066H159.082z"/>
	<path class="st1" d="M186.445,56.628h-1.89v9.667h-5.814V41.111h7.377c3.294,0,5.753,0.636,7.377,1.908
		c1.623,1.271,2.435,3.18,2.435,5.724c0,3.222-1.417,5.487-4.251,6.795l5.705,10.757h-6.359L186.445,56.628z M184.556,52.595h1.781
		c1.259,0,2.18-0.309,2.762-0.927s0.872-1.593,0.872-2.925c0-1.212-0.315-2.102-0.945-2.671c-0.63-0.569-1.624-0.854-2.98-0.854
		h-1.49V52.595z"/>
	<path class="st1" d="M208.612,41.111v25.184h-5.814V41.111H208.612z"/>
	<path class="st1" d="M228.908,42.093c1.732,0.654,3.131,1.902,4.197,3.743c1.066,1.841,1.599,4.421,1.599,7.74
		c0,4.7-1.042,7.994-3.125,9.884s-4.846,2.835-8.285,2.835h-7.086V41.111h6.614C225.146,41.111,227.175,41.438,228.908,42.093z
		 M222.021,45.327v16.752h1.635c1.114,0,2.035-0.241,2.762-0.727c0.727-0.484,1.29-1.351,1.69-2.599c0.4-1.247,0.6-2.974,0.6-5.178
		s-0.206-3.912-0.618-5.124c-0.413-1.211-0.988-2.035-1.726-2.472c-0.739-0.436-1.654-0.653-2.744-0.653H222.021z"/>
	<path class="st1" d="M253.237,66.295l-1.127-5.487h-6.396l-1.126,5.487h-5.887l6.795-25.184h6.978l6.759,25.184H253.237z
		 M246.586,56.628h4.651l-2.326-11.265L246.586,56.628z"/>
	<path class="st1" d="M280.455,41.111l-7.268,15.735v9.448h-5.814v-9.412l-7.268-15.771h6.214l4.034,11.192l4.106-11.192H280.455z"
		/>
	<path class="st1" d="M297.044,41.312c1.296,0.545,2.477,1.351,3.543,2.416l-2.652,3.053c-1.575-1.356-3.186-2.035-4.833-2.035
		c-0.921,0-1.647,0.23-2.18,0.69c-0.533,0.461-0.799,1.091-0.799,1.89c0,0.533,0.121,0.981,0.363,1.345
		c0.242,0.363,0.666,0.715,1.272,1.054c0.605,0.34,1.501,0.727,2.689,1.163c1.55,0.581,2.804,1.205,3.761,1.871
		c0.957,0.667,1.689,1.497,2.198,2.489c0.509,0.994,0.763,2.229,0.763,3.707c0,1.551-0.37,2.926-1.108,4.125
		c-0.739,1.199-1.805,2.138-3.198,2.815c-1.394,0.679-3.022,1.018-4.888,1.018c-3.513,0-6.432-1.187-8.758-3.561l2.834-3.162
		c0.896,0.775,1.799,1.369,2.708,1.781c0.908,0.412,1.871,0.617,2.889,0.617c1.114,0,1.975-0.291,2.58-0.872
		s0.909-1.356,0.909-2.325c0-0.921-0.279-1.659-0.836-2.217c-0.558-0.558-1.611-1.114-3.162-1.672
		c-2.52-0.945-4.313-2.011-5.378-3.198c-1.066-1.187-1.599-2.701-1.599-4.542c0-1.43,0.363-2.695,1.09-3.798
		c0.727-1.102,1.726-1.956,2.998-2.562s2.707-0.908,4.306-0.908C294.251,40.494,295.748,40.767,297.044,41.312z"/>
	<path class="st1" d="M334.836,54.848c0.981,0.921,1.472,2.289,1.472,4.106c0,4.894-3.379,7.341-10.139,7.341h-7.45V41.111h6.578
		c3.222,0,5.705,0.527,7.45,1.581c1.744,1.054,2.616,2.671,2.616,4.852c0,1.453-0.412,2.634-1.235,3.543
		c-0.824,0.908-1.878,1.532-3.162,1.871C332.565,53.298,333.855,53.928,334.836,54.848z M324.534,45.218v5.996h1.599
		c2.229,0,3.343-1.029,3.343-3.089c0-0.993-0.291-1.727-0.873-2.198c-0.581-0.473-1.502-0.709-2.762-0.709H324.534z M329.294,61.316
		c0.703-0.509,1.054-1.393,1.054-2.653c0-2.374-1.285-3.561-3.852-3.561h-1.962v6.977h1.671
		C327.562,62.079,328.592,61.825,329.294,61.316z"/>
	<path class="st1" d="M360.401,58.518c0,1.6-0.34,3.035-1.018,4.307c-0.679,1.271-1.696,2.271-3.053,2.998
		c-1.357,0.727-3.016,1.09-4.979,1.09c-2.956,0-5.203-0.763-6.741-2.289c-1.539-1.526-2.308-3.562-2.308-6.105V41.111h5.814V58.3
		c0,1.454,0.254,2.525,0.763,3.216s1.332,1.036,2.471,1.036s1.956-0.346,2.453-1.036c0.496-0.69,0.745-1.762,0.745-3.216V41.111
		h5.851V58.518z"/>
	<path class="st1" d="M379.424,41.312c1.296,0.545,2.477,1.351,3.543,2.416l-2.652,3.053c-1.575-1.356-3.186-2.035-4.833-2.035
		c-0.921,0-1.647,0.23-2.18,0.69c-0.533,0.461-0.799,1.091-0.799,1.89c0,0.533,0.121,0.981,0.363,1.345
		c0.242,0.363,0.666,0.715,1.272,1.054c0.605,0.34,1.501,0.727,2.689,1.163c1.55,0.581,2.804,1.205,3.761,1.871
		c0.957,0.667,1.689,1.497,2.198,2.489c0.509,0.994,0.763,2.229,0.763,3.707c0,1.551-0.37,2.926-1.108,4.125
		c-0.739,1.199-1.805,2.138-3.198,2.815c-1.394,0.679-3.022,1.018-4.888,1.018c-3.513,0-6.432-1.187-8.758-3.561l2.834-3.162
		c0.896,0.775,1.799,1.369,2.708,1.781c0.908,0.412,1.871,0.617,2.889,0.617c1.114,0,1.975-0.291,2.58-0.872
		s0.909-1.356,0.909-2.325c0-0.921-0.279-1.659-0.836-2.217c-0.558-0.558-1.611-1.114-3.162-1.672
		c-2.52-0.945-4.313-2.011-5.378-3.198c-1.066-1.187-1.599-2.701-1.599-4.542c0-1.43,0.363-2.695,1.09-3.798
		c0.727-1.102,1.726-1.956,2.998-2.562s2.707-0.908,4.306-0.908C376.632,40.494,378.128,40.767,379.424,41.312z"/>
	<path class="st1" d="M395.723,41.111v25.184h-5.814V41.111H395.723z"/>
	<path class="st1" d="M421.087,66.295h-7.268l-6.178-19.769c0.048,0.29,0.072,0.533,0.072,0.727
		c0.218,1.744,0.388,3.325,0.509,4.742s0.182,3.059,0.182,4.924v9.376h-5.088V41.111h7.195l6.287,19.805
		C416.266,57.768,416,54.63,416,51.505V41.111h5.087V66.295z"/>
	<path class="st1" d="M442.963,41.111l-0.618,4.143h-7.813v6.214h6.832v4.07h-6.832v6.541h8.358v4.216h-14.172V41.111H442.963z"/>
	<path class="st1" d="M461.224,41.312c1.296,0.545,2.477,1.351,3.543,2.416l-2.652,3.053c-1.575-1.356-3.186-2.035-4.833-2.035
		c-0.921,0-1.647,0.23-2.18,0.69c-0.533,0.461-0.799,1.091-0.799,1.89c0,0.533,0.121,0.981,0.363,1.345
		c0.242,0.363,0.666,0.715,1.272,1.054c0.605,0.34,1.501,0.727,2.689,1.163c1.55,0.581,2.804,1.205,3.761,1.871
		c0.957,0.667,1.689,1.497,2.198,2.489c0.509,0.994,0.763,2.229,0.763,3.707c0,1.551-0.37,2.926-1.108,4.125
		c-0.739,1.199-1.805,2.138-3.198,2.815c-1.394,0.679-3.022,1.018-4.888,1.018c-3.513,0-6.432-1.187-8.758-3.561l2.834-3.162
		c0.896,0.775,1.799,1.369,2.708,1.781c0.908,0.412,1.871,0.617,2.889,0.617c1.114,0,1.975-0.291,2.58-0.872
		s0.909-1.356,0.909-2.325c0-0.921-0.279-1.659-0.836-2.217c-0.558-0.558-1.611-1.114-3.162-1.672
		c-2.52-0.945-4.313-2.011-5.378-3.198c-1.066-1.187-1.599-2.701-1.599-4.542c0-1.43,0.363-2.695,1.09-3.798
		c0.727-1.102,1.726-1.956,2.998-2.562s2.707-0.908,4.306-0.908C458.432,40.494,459.928,40.767,461.224,41.312z"/>
	<path class="st1" d="M483.319,41.312c1.296,0.545,2.477,1.351,3.543,2.416l-2.652,3.053c-1.575-1.356-3.186-2.035-4.833-2.035
		c-0.921,0-1.647,0.23-2.18,0.69c-0.533,0.461-0.799,1.091-0.799,1.89c0,0.533,0.121,0.981,0.363,1.345
		c0.242,0.363,0.666,0.715,1.272,1.054c0.605,0.34,1.501,0.727,2.689,1.163c1.55,0.581,2.804,1.205,3.761,1.871
		c0.957,0.667,1.689,1.497,2.198,2.489c0.509,0.994,0.763,2.229,0.763,3.707c0,1.551-0.37,2.926-1.108,4.125
		c-0.739,1.199-1.805,2.138-3.198,2.815c-1.394,0.679-3.022,1.018-4.888,1.018c-3.513,0-6.432-1.187-8.758-3.561l2.834-3.162
		c0.896,0.775,1.799,1.369,2.708,1.781c0.908,0.412,1.871,0.617,2.889,0.617c1.114,0,1.975-0.291,2.58-0.872
		s0.909-1.356,0.909-2.325c0-0.921-0.279-1.659-0.836-2.217c-0.558-0.558-1.611-1.114-3.162-1.672
		c-2.52-0.945-4.313-2.011-5.378-3.198c-1.066-1.187-1.599-2.701-1.599-4.542c0-1.43,0.363-2.695,1.09-3.798
		c0.727-1.102,1.726-1.956,2.998-2.562s2.707-0.908,4.306-0.908C480.527,40.494,482.023,40.767,483.319,41.312z"/>
</g>
<g>
	<g>
		<g>
			<g>
				
					<rect x="76.239" y="23.092" transform="matrix(0.7071 -0.7071 0.7071 0.7071 3.7991 65.3778)" class="st1" width="9.157" height="10.022"/>
			</g>
		</g>
	</g>
	<g>
		<g>
			<g>
				<g>
					<g>
						
							<rect x="43.181" y="43.131" transform="matrix(0.7071 -0.7071 0.7071 0.7071 -16.24 57.0774)" class="st1" width="35.196" height="10.022"/>
					</g>
				</g>
			</g>
		</g>
	</g>
	<g>
		<g>
			<polygon class="st1" points="54.509,109.019 0,54.509 54.509,0 70.264,15.754 68.908,17.11 54.509,2.712 2.712,54.509 
				54.509,106.307 106.307,54.509 92.005,40.208 93.361,38.852 109.019,54.509 			"/>
		</g>
	</g>
	<g>
		<g>
			<polygon class="st0" points="54.509,91.326 17.693,54.509 54.863,17.339 61.836,24.312 31.639,54.509 54.509,77.38 
				84.707,47.183 91.68,54.156 			"/>
		</g>
	</g>
</g>
</svg>
